<svg xmlns="http://www.w3.org/2000/svg" xmlns:xlink="http://www.w3.org/1999/xlink" version="1.1" id="Layer_1" x="0px" y="0px" viewBox="16.9 2.5 65.6 17.5" enable-background="new 16.9 2.5 65.6 17.5" xml:space="preserve">
<symbol id="New_Symbol" viewBox="-50.7 -13.5 101.3 27.1">
	<path fill="#0354A0" d="M-42.9-8.9h12.4c0.1 0 0.1-0.1 0-0.1C-32-9.6-34-11.5-34-11.5c-1.4-1.2-2.5-2-4.8-2h-11.8 c-0.1 0-0.1 0.1 0 0.1c1.3 0.7 3.2 2.6 3.2 2.6C-46.6-10-45-8.9-42.9-8.9L-42.9-8.9L-42.9-8.9z"/>
	<path fill="#0354A0" d="M38.2-8.9h12.4c0.1 0 0.1-0.1 0-0.1c-1.4-0.6-3.4-2.5-3.4-2.5c-1.4-1.2-2.5-2-4.8-2H30.5 c-0.1 0-0.1 0.1 0 0.1c1.3 0.7 3.2 2.6 3.2 2.6C34.6-10 36.2-8.9 38.2-8.9L38.2-8.9L38.2-8.9z"/>
	<path fill="#0354A0" d="M-22.6-8.9h12.4c0.1 0 0.1-0.1 0-0.1c-1.4-0.6-3.4-2.5-3.4-2.5c-1.4-1.2-2.5-2-4.8-2h-11.8 c-0.1 0-0.1 0.1 0 0.1c1.3 0.7 3.2 2.6 3.2 2.6C-26.3-10-24.7-8.9-22.6-8.9L-22.6-8.9L-22.6-8.9z"/>
	<path fill="#0354A0" d="M-2.4-8.9H10c0.1 0 0.1-0.1 0-0.1c-1.4-0.6-3.4-2.5-3.4-2.5c-1.4-1.2-2.5-2-4.8-2H-10c-0.1 0-0.1 0.1 0 0.1 c1.3 0.7 3.2 2.6 3.2 2.6C-6-10-4.4-8.9-2.4-8.9L-2.4-8.9L-2.4-8.9z"/>
	<path fill="#0354A0" d="M17.9-8.9h12.4c0.1 0 0.1-0.1 0-0.1c-1.4-0.6-3.4-2.5-3.4-2.5c-1.4-1.2-2.5-2-4.8-2H10.3 c-0.1 0-0.1 0.1 0 0.1c1.3 0.7 3.2 2.6 3.2 2.6C14.3-10 15.9-8.9 17.9-8.9L17.9-8.9L17.9-8.9z"/>
	<path fill="#E52620" d="M21.3 13.5c-7.8 0-12.9-3.7-12.9-9.4c0-5.2 4.7-8.7 11.8-8.7c2.3 0 4.3 0.3 6.7 0.9v4.4 c-1.7-1.8-3.7-2.5-5.9-2.5c-4.2 0-7 2.6-7 6.4c0 3.7 3 6.4 7.1 6.4c2.3 0 4.1-0.8 5.5-2.2V13C25.1 13.4 23.2 13.5 21.3 13.5 L21.3 13.5L21.3 13.5z"/>
	<path fill="#E52620" d="M-37.2 10.5c2.9 0 6.3-0.5 7.8-1.7V13H-50V8.8c1.5 1.1 4.5 1.6 7.8 1.6V-1c0-1.7-0.1-2.1-0.9-3h6.6 c-0.7 0.9-0.9 1.4-0.9 3v11.5H-37.2L-37.2 10.5z"/>
	<path fill="#E52620" d="M-15.9 6.3c-1.2-0.4-3.3-0.5-4.4-0.5H-22v4.5h2.3c2.1 0 5.7-0.4 7-1.6V13h-14.9c0.7-0.9 0.8-1.4 0.8-3V-1 c0-1.7-0.1-2.2-0.8-3h15.9v4.1c-2.2-1.6-6.3-1.6-8-1.5H-22v4.7h1.7c1.2 0 3.2-0.1 4.4-0.5V6.3L-15.9 6.3L-15.9 6.3z"/>
	<path fill="#E52620" d="M6.2 12.4c-2.3 0.7-5.5 1.2-7.8 1.2c-4.3 0-8.5-1.3-8.5-5.6c0-7.4 13-3.5 13-8c0-1.5-2.3-2.1-4.1-2.1 c-3.3 0-5.7 0.5-8.6 2.2v-3.7c2.2-0.7 5.1-1.1 8.4-1.1c4.5 0 8.7 1.2 8.7 5.5c0 7.8-13 4.3-13 8.1c0 1.5 2.1 2.1 3.9 2.1 c3.1 0 6.4-0.9 8.2-2.6v4H6.2L6.2 12.4z"/>
	<path fill="#E52620" d="M33.1 4.4c0 3.6 2.3 6.5 5.8 6.5s5.8-2.9 5.8-6.5C44.8 0.9 42.5-2 39-2C35.4-2 33.1 0.9 33.1 4.4L33.1 4.4 L33.1 4.4z M50 4.6c0 5.4-4.2 9-10.5 9C32.7 13.5 28 9.7 28 4.2c0-5.3 4.3-8.9 10.6-8.9C45.3-4.7 50-0.9 50 4.6L50 4.6L50 4.6z"/>
</symbol>
<use xlink:href="#New_Symbol" width="101.3" height="27.1" id="XMLID_4_" x="-50.7" y="-13.5" transform="matrix(0.6475 0 0 -0.6475 49.7275 11.2625)" overflow="visible"/>
</svg>
